<svg width="504" height="192" viewBox="0 0 504 192" fill="none" xmlns="http://www.w3.org/2000/svg">
<path d="M72 8H24V184H168V136L72 8Z" fill="#7AC1E4"/>
<path d="M72 136V8L168 136H72Z" fill="#0088CC"/>
<path d="M237.265 20.2562H212.96V87.4714H200.137V20.2562H176V8.02002H237.349V20.2562H237.265Z" fill="#0088CC"/>
<path d="M327.275 47.7543C327.275 70.5505 308.837 88.9886 286.041 88.9886C263.245 88.9886 244.807 70.5505 244.807 47.7543C244.807 24.9581 263.329 6.52002 286.041 6.52002C308.837 6.52002 327.275 24.9581 327.275 47.7543ZM257.63 47.7543C257.63 63.3429 270.285 75.9981 285.873 75.9981C301.462 75.9981 314.117 63.3429 314.117 47.7543C314.117 32.1657 301.462 19.5105 285.873 19.5105C270.285 19.5105 257.63 32.1657 257.63 47.7543Z" fill="#0088CC"/>
<path d="M408.32 8.02002V87.3763H392.815L353.425 26.0175L354.682 54.2275V87.46H341.859V8.02002H356.945L396.587 69.2951L395.497 41.2526V8.02002H408.32Z" fill="#0088CC"/>
<path d="M249.237 171.841V184.077H200.125V104.625H212.948V171.841H249.237Z" fill="#0088CC"/>
<path d="M312.346 162.705H277.816L270.106 184.077H256.193L287.203 104.625H303.546L334.555 184.077H320.811L312.346 162.705ZM307.736 150.469L295.081 117.197L282.426 150.469H307.736Z" fill="#0088CC"/>
<path d="M407.553 161.616C407.553 175.528 397.915 184.077 381.237 184.077H346.959V104.625H380.818C396.323 104.625 404.955 112.336 404.955 125.075C405.458 132.282 401.184 138.987 394.395 141.669C402.944 144.351 408.475 152.648 407.553 161.616ZM379.226 116.861H359.363V137.311H378.89C388.193 137.311 391.629 133.623 391.629 127.086C391.629 120.549 388.361 116.861 379.226 116.861ZM394.647 160.61C394.647 153.319 391.21 149.128 380.818 149.128H359.363V171.841H380.483C391.21 171.841 394.479 167.399 394.479 160.61H394.647Z" fill="#0088CC"/>
<path d="M480.019 161.281C480.019 178.629 464.515 185.418 450.351 185.418C428.141 185.418 418.335 173.181 416.24 159.437H429.147C431.577 168.656 437.695 173.349 450.267 173.349C460.995 173.349 467.113 169.159 467.113 161.7C467.113 154.241 460.575 153.067 445.909 149.799C431.158 146.446 418.419 142.088 418.419 127.17C418.419 112.252 432.248 103.117 447.585 103.117C467.532 103.117 476.751 113.425 479.014 126.332H466.023C463.257 118.789 455.547 114.18 447.585 115.437C436.857 115.437 431.074 120.214 431.074 127.17C431.074 132.785 435.684 134.881 448.842 137.479C468.956 141.753 480.019 145.943 480.019 161.281Z" fill="#0088CC"/>
</svg>
