<svg width="48" height="48" viewBox="0 0 48 48" fill="none" xmlns="http://www.w3.org/2000/svg">
<path d="M15 3H9V15H15V3Z" fill="#681EB0"/>
<path d="M32.999 3H26.999V15H32.999V3Z" fill="#3D3BC1"/>
<path d="M39.001 3H33.001V8.99998H39.001V3Z" fill="#4963E6"/>
<path d="M39.001 15.0005H33.001V21.0005H39.001V15.0005Z" fill="#4963E6"/>
<path d="M39.001 27H33.001V33H39.001V27Z" fill="#4963E6"/>
<path d="M39.001 39H33.001V45H39.001V39Z" fill="#4963E6"/>
<path d="M27 33H21V45H27V33Z" fill="#35179C"/>
<path d="M14.999 44.9999V3H20.999V44.9999H14.999Z" fill="#4E1AA6"/>
<path d="M27 3H21V26.9999H27V3Z" fill="#35179C"/>
<path d="M32.999 21H26.999V44.9999H32.999V21Z" fill="#3D3BC1"/>
</svg>
